<svg width="26" height="25" viewBox="0 0 26 25" fill="none" xmlns="http://www.w3.org/2000/svg">
<g id="Group 33524">
<path id="Vector" d="M24.5565 10.3267L14.3592 10.3262C13.9089 10.3262 13.5439 10.6911 13.5439 11.1414V14.399C13.5439 14.8492 13.9089 15.2142 14.3592 15.2142H20.1017C19.4729 16.8461 18.2992 18.2127 16.8019 19.0811L19.2504 23.3198C23.1783 21.0482 25.5004 17.0624 25.5004 12.6006C25.5004 11.9653 25.4536 11.5111 25.36 10.9998C25.2888 10.6112 24.9515 10.3267 24.5565 10.3267Z" fill="#167EE6"/>
<path id="Vector_2" d="M13.0004 20.1086C10.1902 20.1086 7.73687 18.5731 6.41924 16.301L2.18066 18.7441C4.33765 22.4825 8.37837 24.9999 13.0004 24.9999C15.2679 24.9999 17.4074 24.3894 19.2504 23.3255V23.3197L16.8019 19.0809C15.6818 19.7305 14.3857 20.1086 13.0004 20.1086Z" fill="#12B347"/>
<path id="Vector_3" d="M19.25 23.3256V23.3198L16.8014 19.0811C15.6814 19.7306 14.3854 20.1087 13 20.1087V25C15.2674 25 17.407 24.3896 19.25 23.3256Z" fill="#0F993E"/>
<path id="Vector_4" d="M5.39131 12.5C5.39131 11.1148 5.76934 9.8189 6.4188 8.69893L2.18022 6.25586C1.11045 8.09311 0.5 10.2268 0.5 12.5C0.5 14.7733 1.11045 16.907 2.18022 18.7442L6.4188 16.3012C5.76934 15.1812 5.39131 13.8853 5.39131 12.5Z" fill="#FFD500"/>
<path id="Vector_5" d="M13.0004 4.89131C14.833 4.89131 16.5163 5.54248 17.8311 6.62563C18.1555 6.89282 18.6269 6.87353 18.924 6.57642L21.2321 4.26831C21.5692 3.9312 21.5452 3.37939 21.1851 3.06699C18.9822 1.15591 16.116 0 13.0004 0C8.37837 0 4.33765 2.51743 2.18066 6.25581L6.41924 8.69888C7.73687 6.42676 10.1902 4.89131 13.0004 4.89131Z" fill="#FF4B26"/>
<path id="Vector_6" d="M17.8307 6.62563C18.155 6.89282 18.6265 6.87353 18.9236 6.57642L21.2317 4.26831C21.5687 3.9312 21.5447 3.37939 21.1847 3.06699C18.9818 1.15586 16.1156 0 13 0V4.89131C14.8325 4.89131 16.5159 5.54248 17.8307 6.62563Z" fill="#D93F21"/>
</g>
</svg>
